<svg width="34" height="34" viewBox="0 0 34 34" fill="none" xmlns="http://www.w3.org/2000/svg">
<g clip-path="url(#clip0_465_218)">
<path d="M19.8333 18.4167C19.8333 16.8583 18.5583 15.5833 17 15.5833C15.4417 15.5833 14.1667 16.8583 14.1667 18.4167C14.1667 19.5642 14.9883 21.2925 16.1783 22.7092C15.3 23.5025 14.1667 24.0833 12.75 24.0833C11.6167 24.0833 10.5117 23.5308 9.52 22.6808C11.4892 20.4142 12.75 17.3542 12.75 15.5833C12.75 13.2458 10.8375 11.3333 8.5 11.3333C6.1625 11.3333 4.25 13.2458 4.25 15.5833C4.25 17.3258 5.4825 20.4425 7.50833 22.7092C6.68667 23.4175 5.78 23.9275 4.845 24.0833C4.4625 24.14 4.19333 24.5083 4.26417 24.8908C4.32083 25.245 4.61833 25.4858 4.95833 25.4858C5.00083 25.4858 5.02917 25.4858 5.07167 25.4858C6.31833 25.2875 7.48 24.6217 8.5 23.715C9.7325 24.7917 11.1633 25.5 12.75 25.5C17.425 25.5 19.8333 20.5417 19.8333 18.4167ZM5.66667 15.5833C5.66667 14.025 6.94167 12.75 8.5 12.75C10.0583 12.75 11.3333 14.025 11.3333 15.5833C11.3333 17.1417 10.2 19.7342 8.52833 21.6892C6.82833 19.7625 5.66667 17.1275 5.66667 15.5833ZM15.5833 18.4167C15.5833 17.6375 16.2208 17 17 17C17.7792 17 18.4167 17.6375 18.4167 18.4167C18.4167 19.0542 18.0058 20.4142 17.1275 21.6325C16.1642 20.4283 15.5833 19.0825 15.5833 18.4167ZM32.9658 16.6175C31.6342 15.2858 29.2967 15.2858 27.9508 16.6175L17.0283 27.54C16.0933 28.475 15.5692 29.7217 15.5692 31.0392V33.2917C15.5692 33.6883 15.8808 34 16.2775 34H18.53C19.8617 34 21.0942 33.49 22.0292 32.5408L32.9517 21.6183C33.6175 20.9525 33.9858 20.06 33.9858 19.1108C33.9858 18.1617 33.6175 17.2692 32.9517 16.6033L32.9658 16.6175ZM31.96 20.6267L21.0375 31.5492C20.3717 32.215 19.4792 32.5833 18.53 32.5833H16.9858V31.0392C16.9858 30.09 17.3542 29.1975 18.02 28.5317L28.9425 17.6092C29.75 16.8017 31.1383 16.8017 31.9458 17.6092C32.3425 18.0058 32.5692 18.5442 32.5692 19.1108C32.5692 19.6775 32.3425 20.2158 31.9458 20.6125L31.96 20.6267ZM12.0417 29.75H6.375C3.64083 29.75 1.41667 27.5258 1.41667 24.7917V6.375C1.41667 3.64083 3.64083 1.41667 6.375 1.41667H15.5833V6.375C15.5833 8.33 17.17 9.91667 19.125 9.91667H24.0833V14.875C24.0833 15.2717 24.395 15.5833 24.7917 15.5833C25.1883 15.5833 25.5 15.2717 25.5 14.875V9.67583C25.5142 8.2875 25.0042 6.99833 24.0692 6.04917L19.4792 1.45917C18.5442 0.524167 17.2975 0 15.98 0H6.375C2.86167 0 0 2.86167 0 6.375V24.7917C0 28.305 2.86167 31.1667 6.375 31.1667H12.0417C12.4383 31.1667 12.75 30.855 12.75 30.4583C12.75 30.0617 12.4383 29.75 12.0417 29.75ZM23.0633 7.04083C23.4742 7.45167 23.7575 7.9475 23.9275 8.5H19.125C17.9492 8.5 17 7.55083 17 6.375V1.5725C17.5525 1.7425 18.0483 2.04 18.4733 2.45083L23.0633 7.04083Z" fill="#3E68AA"/>
</g>
<defs>
<clipPath id="clip0_465_218">
<rect width="34" height="34" fill="white"/>
</clipPath>
</defs>
</svg>
