<svg width="16" height="17" viewBox="0 0 16 17" fill="none" xmlns="http://www.w3.org/2000/svg">
<g clip-path="url(#clip0_1444_1080)">
<path d="M13.7455 13.0097L11.0356 10.2989C13.0633 7.58945 12.5104 3.74937 9.8007 1.72186C7.09102 -0.305644 3.25062 0.24719 1.22294 2.95664C-0.804735 5.6661 -0.251854 9.50618 2.45783 11.5337C4.63447 13.1624 7.62403 13.1624 9.8007 11.5337L12.5117 14.2445C12.8524 14.5852 13.4048 14.5852 13.7455 14.2445C14.0861 13.9038 14.0861 13.3515 13.7455 13.0109L13.7455 13.0097ZM6.15186 11.0105C3.74362 11.0105 1.79138 9.0584 1.79138 6.65037C1.79138 4.24233 3.74362 2.29026 6.15186 2.29026C8.56009 2.29026 10.5123 4.24233 10.5123 6.65037C10.5098 9.05731 8.55903 11.0079 6.15186 11.0105Z" fill="#999999"/>
</g>
<defs>
<clipPath id="clip0_1444_1080">
<rect width="16" height="16" fill="white" transform="translate(0 0.5)"/>
</clipPath>
</defs>
</svg>
