<svg width="20" height="20" viewBox="0 0 20 20" fill="none" xmlns="http://www.w3.org/2000/svg">
<circle cx="10" cy="10" r="10" fill="white"/>
<path d="M9.33 10.17V5.2H10.59V10.17L10.38 12.13H9.54L9.33 10.17ZM9.358 14.972C9.19933 14.8133 9.12 14.6127 9.12 14.37C9.12 14.1273 9.19933 13.9267 9.358 13.768C9.51667 13.6093 9.71733 13.53 9.96 13.53C10.2027 13.53 10.4033 13.6093 10.562 13.768C10.7207 13.9267 10.8 14.1273 10.8 14.37C10.8 14.6127 10.7207 14.8133 10.562 14.972C10.4033 15.1307 10.2027 15.21 9.96 15.21C9.71733 15.21 9.51667 15.1307 9.358 14.972Z" fill="black"/>
</svg>
