<svg width="78" height="78" viewBox="0 0 78 78" fill="none" xmlns="http://www.w3.org/2000/svg">
<circle cx="39" cy="39" r="39" fill="#202020"/>
<path d="M48.0026 30.8351C48.2774 31.1168 48.2746 31.5722 47.9969 31.851L38.3731 41.4879C37.9608 41.906 37.4182 42.1158 36.8756 42.1158C36.333 42.1158 35.7862 41.906 35.3711 41.485L30.7129 36.8842C30.4324 36.6069 30.4267 36.1529 30.6987 35.8684C30.9735 35.5839 31.4212 35.5796 31.7003 35.854L36.3656 40.462C36.6504 40.7508 37.0995 40.7479 37.3743 40.4692L47.001 30.8294C47.2801 30.5506 47.7292 30.5521 48.0026 30.8351ZM56 27.0289V45.7079C56 48.481 53.7757 50.7368 51.0415 50.7368H46.0376L40.3934 55.4712C40.0023 55.8233 39.5065 56 39.0064 56C38.502 56 37.9934 55.819 37.5882 55.4554L32.0673 50.7368H26.9585C24.2243 50.7368 22 48.481 22 45.7079V27.0289C21.9986 24.2558 24.2228 22 26.9571 22H51.0415C53.7757 22 56 24.2558 56 27.0289ZM54.5833 27.0289C54.5833 25.049 52.9951 23.4368 51.0415 23.4368H26.9571C25.0049 23.4368 23.4153 25.049 23.4153 27.0289V45.7079C23.4153 47.6879 25.0049 49.3 26.9571 49.3H32.3251C32.4923 49.3 32.6538 49.3604 32.7813 49.4696L38.5148 54.3692C38.7953 54.6221 39.2005 54.6249 39.4711 54.3807L45.3321 49.4652C45.4596 49.3589 45.6182 49.3 45.7826 49.3H51.0415C52.9951 49.3 54.5833 47.6879 54.5833 45.7079V27.0289Z" fill="white"/>
<circle cx="63" cy="7" r="7" fill="#00E676"/>
<circle cx="63" cy="7" r="3" fill="white"/>
</svg>
